<svg xmlns="http://www.w3.org/2000/svg" width="31.199" height="31.199" viewBox="0 0 31.199 31.199"><path d="M185.214,292.173c.182.16.345.328.239.615s-.324.307-.569.3c-.171-.007-.341,0-.528,0V297.3c.1.006.2.016.3.017,1,0,2-.008,3,0a2.021,2.021,0,0,1,2.081,1.785,10.773,10.773,0,0,1,.019,1.762.438.438,0,0,1-.734.255.422.422,0,0,1-.114-.305c-.014-.416,0-.831,0-1.253a1.189,1.189,0,0,0-1.259-1.322H173.72a1.188,1.188,0,0,0-1.252,1.329V319.1a1.191,1.191,0,0,0,1.257,1.33h13.934a1.2,1.2,0,0,0,1.256-1.366V303.15a1.869,1.869,0,0,1,.007-.3.429.429,0,0,1,.852,0,1.932,1.932,0,0,1,.005.273v15.941a2.138,2.138,0,0,1-1.727,2.277v.621a1.3,1.3,0,1,1-2.591-.007v-.569h-9.536v.589a1.3,1.3,0,1,1-2.591,0v-.631a2.1,2.1,0,0,1-1.695-1.719,2.192,2.192,0,0,1-.035-.456V299.479a2.035,2.035,0,0,1,1.943-2.163c1.038-.042,2.077-.015,3.115-.017h.36v-4.236H176.5c-.243.009-.464-.014-.57-.3s.057-.456.238-.616Zm-1.778.937h-5.5V297.3h5.5Zm-9.247,28.277c.04.353-.127.74.235.952a.48.48,0,0,0,.444-.027c.31-.235.164-.594.186-.926Zm12.1,0c.066.355-.121.749.255.955a.484.484,0,0,0,.444-.034c.309-.238.152-.6.182-.921Z" transform="translate(-171.602 -292.15)"/><path d="M357.264,404.495H348.3c-.462,0-.678-.142-.674-.44s.227-.44.681-.44h8.961V402.5c-.447,0-.886.009-1.326,0a.56.56,0,0,1-.394-.119.55.55,0,0,1-.124-.453.581.581,0,0,1,.4-.292,9.55,9.55,0,0,1,1.095-.017h.368v-6.631a1.177,1.177,0,0,0-1.333-1.325h-3.227a1.285,1.285,0,0,0,.34,1.25c.825.795.655.432.668,1.619.007.567,0,1.135,0,1.7,0,.476-.128.606-.593.608h-1.789c-.425,0-.575-.151-.576-.569,0-.8-.013-1.6.009-2.395a1.068,1.068,0,0,1,.207-.51,1.484,1.484,0,0,1,.381-.391,1.14,1.14,0,0,0,.409-1.3c-.091,0-.192-.013-.293-.014h-3.317c-.353-.013-.56-.182-.553-.453s.216-.432.571-.432h3.606c0-.6.033-1.2-.015-1.785-.023-.275-.3-.365-.579-.364H348.24a1.491,1.491,0,0,1-.23,0,.406.406,0,0,1-.376-.432.383.383,0,0,1,.391-.418c1.164-.008,2.328-.023,3.49.009a1.28,1.28,0,0,1,1.159,1.144c.041.467.023.941.03,1.412v.439h3.332a2.027,2.027,0,0,1,2.124,2.118v9.953a1.99,1.99,0,0,1-1.375,1.985c-.155.056-.216.126-.2.287a2.674,2.674,0,0,1-.008.461,1.3,1.3,0,0,1-1.376,1.222,1.312,1.312,0,0,1-1.233-1.315c-.007-.163,0-.324,0-.54h-5.71c-.122,0-.285.012-.358-.057a.645.645,0,0,1-.24-.432c.016-.136.194-.276.335-.363.093-.057.243-.026.368-.027h7.617A1.236,1.236,0,0,0,357.264,404.495Zm-5.594-6.554h1.193a12.39,12.39,0,0,1,.012-1.474c.067-.553-.243-.84-.648-1.151-.191.233-.507.444-.54.689A18.314,18.314,0,0,0,351.669,397.941Zm3.176,9.017c.054.324-.131.687.216.893a.5.5,0,0,0,.446-.012c.324-.216.148-.568.188-.881Z" transform="translate(-326.962 -377.617)"/><path d="M188.474,436.262V445h.925c.125,0,.25,0,.375.008a.432.432,0,0,1,.014.864c-.6.015-1.188.017-1.788,0-.266-.008-.4-.2-.4-.5v-9.4c0-.471.125-.6.595-.6h13.527c.465,0,.591.134.591.607v9.284c0,.5-.13.622-.636.622h-9.749c-.113,0-.262.015-.333-.047a.786.786,0,0,1-.279-.419.363.363,0,0,1,.342-.394,2.434,2.434,0,0,1,.374-.019h9.405v-8.731Z" transform="translate(-185.873 -418.282)"/><path d="M228.307,380.169h-2.682c-.465,0-.6-.139-.606-.6v-1.5c0-.354.148-.508.505-.519.336-.01.673,0,1.009,0H231c.53,0,.648.119.648.638v1.384c0,.456-.14.594-.607.595Zm2.467-1.707h-4.869v.809h4.869Z" transform="translate(-218.834 -367.777)"/><path d="M213.515,452.019v1.324c0,.324-.15.5-.42.507s-.442-.177-.443-.514v-1.313H204.4a3.167,3.167,0,0,1-.345-.01.407.407,0,0,1-.4-.409.432.432,0,0,1,.39-.455,1.809,1.809,0,0,1,.259-.006h10.153a.437.437,0,0,1,.445.432.411.411,0,0,1-.432.432C214.163,452.031,213.854,452.019,213.515,452.019Z" transform="translate(-200.193 -432.944)"/><path d="M351.111,500.3h-2.682a.616.616,0,0,1-.359-.057c-.119-.1-.261-.275-.247-.4s.179-.285.31-.39c.068-.055.2-.034.309-.034H353.8a1.484,1.484,0,0,1,.258.017.4.4,0,0,1,.362.417.407.407,0,0,1-.344.432,1.212,1.212,0,0,1-.286.019Z" transform="translate(-327.134 -475.774)"/></svg>