<svg xmlns="http://www.w3.org/2000/svg" width="17.625" height="15.863" viewBox="0 0 17.625 15.863"><defs><style>.a{fill:#878787;}</style></defs><g transform="translate(-3 -4.5)"><path class="a" d="M20.625,20.362A3.371,3.371,0,0,1,18.7,19.8a1.654,1.654,0,0,0-1.013-.317,1.583,1.583,0,0,0-1.013.317,3.554,3.554,0,0,1-3.842,0,1.654,1.654,0,0,0-1.013-.317,1.583,1.583,0,0,0-1.013.317,3.429,3.429,0,0,1-1.93.564A3.371,3.371,0,0,1,6.957,19.8a1.6,1.6,0,0,0-1.013-.317A1.6,1.6,0,0,0,4.93,19.8,3.429,3.429,0,0,1,3,20.362V18.6a1.583,1.583,0,0,0,1.013-.317,3.429,3.429,0,0,1,1.93-.564,3.371,3.371,0,0,1,1.921.564,1.583,1.583,0,0,0,1.013.317,1.583,1.583,0,0,0,1.013-.317,3.429,3.429,0,0,1,1.93-.564,3.371,3.371,0,0,1,1.921.564,1.654,1.654,0,0,0,1.013.317,1.6,1.6,0,0,0,1.013-.317,3.554,3.554,0,0,1,3.842,0,1.583,1.583,0,0,0,1.013.317Zm0-3.966a3.371,3.371,0,0,1-1.921-.564,1.654,1.654,0,0,0-1.013-.317,1.583,1.583,0,0,0-1.013.317,3.554,3.554,0,0,1-3.842,0,1.654,1.654,0,0,0-1.013-.317,1.583,1.583,0,0,0-1.013.317,3.371,3.371,0,0,1-1.921.564,3.371,3.371,0,0,1-1.921-.564,1.654,1.654,0,0,0-1.013-.317,1.6,1.6,0,0,0-1.013.317A3.488,3.488,0,0,1,3,16.4V14.634a1.583,1.583,0,0,0,1.013-.317,3.371,3.371,0,0,1,1.921-.564,3.371,3.371,0,0,1,1.921.564,1.654,1.654,0,0,0,1.013.317,1.583,1.583,0,0,0,1.013-.317,3.554,3.554,0,0,1,3.842,0,1.654,1.654,0,0,0,1.013.317,1.6,1.6,0,0,0,1.013-.317,3.554,3.554,0,0,1,3.842,0,1.654,1.654,0,0,0,1.013.317V16.4ZM8.878,12.431a1.583,1.583,0,0,0,1.013-.317,3.429,3.429,0,0,1,1.93-.564,3.371,3.371,0,0,1,1.921.564,1.654,1.654,0,0,0,1.013.317,1.6,1.6,0,0,0,1.013-.317c.106-.062.229-.132.361-.2L10.473,6.262A5.866,5.866,0,0,0,5.644,4.5V6.7A4.336,4.336,0,0,1,9.169,8.025l.881.881L7.186,11.77a4.822,4.822,0,0,1,.679.344A1.583,1.583,0,0,0,8.878,12.431Z" transform="translate(0)"/><path class="a" d="M25.406,6.7a2.2,2.2,0,1,1-2.2-2.2A2.2,2.2,0,0,1,25.406,6.7Z" transform="translate(-7.425 0)"/></g></svg>