<svg xmlns="http://www.w3.org/2000/svg" width="21.5" height="16.723" viewBox="0 0 21.5 16.723"><defs><style>.a{fill:#878787;}</style></defs><path class="a" d="M21.211,8.222a11.938,11.938,0,0,0-7.982,3.1,9.592,9.592,0,0,0-2.479,3.541A9.592,9.592,0,0,0,8.271,11.32a11.938,11.938,0,0,0-7.982-3.1A.284.284,0,0,0,0,8.514a10.336,10.336,0,0,0,3.314,7.439,9.907,9.907,0,0,0,7.437,3.019,9.907,9.907,0,0,0,7.437-3.019A10.335,10.335,0,0,0,21.5,8.514.284.284,0,0,0,21.211,8.222ZM10.749,12.351A10.269,10.269,0,0,1,12.4,10.465a11.171,11.171,0,0,1,2.249-1.686A12.313,12.313,0,0,0,11.034,2.35a.448.448,0,0,0-.565,0A12.313,12.313,0,0,0,6.858,8.773,10.974,10.974,0,0,1,9.068,10.43a10.555,10.555,0,0,1,1.681,1.921Z" transform="translate(0 -2.25)"/></svg>