<svg xmlns="http://www.w3.org/2000/svg" width="28.825" height="26.608" viewBox="0 0 28.825 26.608"><path d="M24.273,4.5a8.526,8.526,0,0,0-6.486,3.042A8.526,8.526,0,0,0,11.3,4.5a7.837,7.837,0,0,0-7.927,7.975c0,5.509,4.9,9.929,12.32,16.748l2.093,1.885,2.093-1.885C27.3,22.4,32.2,17.984,32.2,12.475A7.837,7.837,0,0,0,24.273,4.5Zm-5.6,22.818-.291.27-.6.54-.6-.54-.291-.27a88.075,88.075,0,0,1-8.5-8.454c-1.94-2.4-2.8-4.372-2.8-6.389A5.763,5.763,0,0,1,7.241,8.366,5.639,5.639,0,0,1,11.3,6.717,6.355,6.355,0,0,1,16.09,8.969l1.7,2.016,1.7-2.016a6.332,6.332,0,0,1,4.788-2.252,5.667,5.667,0,0,1,4.067,1.649,5.775,5.775,0,0,1,1.642,4.109c0,2.009-.866,3.984-2.8,6.389A88.252,88.252,0,0,1,18.675,27.318Z" transform="translate(-3.375 -4.5)"/></svg>