<svg xmlns="http://www.w3.org/2000/svg" width="16.706" height="16.709" viewBox="0 0 16.706 16.709"><defs><style>.a{fill:#878787;}</style></defs><path class="a" d="M13.9,15.232,15.23,13.9l5.978,5.981-1.325,1.325Zm3.985-5.319,2.655-2.655A9.393,9.393,0,0,0,7.267,7.239a10.367,10.367,0,0,1,10.62,2.674ZM7.239,7.267a9.393,9.393,0,0,0,.019,13.275l2.655-2.655A10.367,10.367,0,0,1,7.239,7.267Zm.019-.019-.009.009c-.353,2.794,1.086,6.387,3.992,9.3L16.56,11.24c-2.906-2.906-6.508-4.345-9.3-3.992Z" transform="translate(-4.502 -4.502)"/></svg>