<svg xmlns="http://www.w3.org/2000/svg" width="23.89" height="16.723" viewBox="0 0 23.89 16.723"><defs><style>.a{fill:#878787;}</style></defs><path class="a" d="M23.7,6.837a17.356,17.356,0,0,0-23.51,0,.593.593,0,0,0-.013.858L1.455,8.963a.606.606,0,0,0,.836.014,14.321,14.321,0,0,1,19.308,0,.607.607,0,0,0,.836-.014l1.278-1.268A.594.594,0,0,0,23.7,6.837ZM11.945,14.195a2.389,2.389,0,1,0,2.389,2.389A2.389,2.389,0,0,0,11.945,14.195Zm7.565-3.12a11.459,11.459,0,0,0-15.13,0,.59.59,0,0,0-.021.864l1.286,1.269a.609.609,0,0,0,.823.03,8.407,8.407,0,0,1,10.955,0,.609.609,0,0,0,.823-.03l1.286-1.269A.59.59,0,0,0,19.51,11.075Z" transform="translate(0 -2.25)"/></svg>