<svg xmlns="http://www.w3.org/2000/svg" width="24.817" height="27.53" viewBox="0 0 24.817 27.53"><defs><style>.a{stroke:#000;stroke-width:0.4px;}</style></defs><g transform="translate(0.2 0.2)"><path class="a" d="M39.965,19.617a.452.452,0,0,0,.452-.452v-.9A2.263,2.263,0,0,0,38.156,16H21.878a2.263,2.263,0,0,0-2.261,2.261V38.608h.9V18.261A1.358,1.358,0,0,1,21.878,16.9h14.47a2.249,2.249,0,0,0-.453,1.356V40.869a1.356,1.356,0,1,1-2.713,0v-.9a.452.452,0,0,0-.452-.452H16.452a.452.452,0,0,0-.452.452v.9a2.263,2.263,0,0,0,2.261,2.261H34.539A2.263,2.263,0,0,0,36.8,40.869V19.617Zm-21.7,22.608A1.358,1.358,0,0,1,16.9,40.869v-.452H32.278v.452a2.249,2.249,0,0,0,.453,1.356ZM38.156,16.9a1.358,1.358,0,0,1,1.356,1.356v.452H36.8v-.452A1.358,1.358,0,0,1,38.156,16.9Z" transform="translate(-16 -16)"/><path class="a" d="M184,58.821a1.2,1.2,0,0,0,.475.972,1.993,1.993,0,0,0,3.318,1.374,1.232,1.232,0,0,0,1.374-1.374,1.232,1.232,0,0,0,0-1.944,1.993,1.993,0,0,0-3.318-1.374,1.232,1.232,0,0,0-1.374,1.374A1.2,1.2,0,0,0,184,58.821Zm1.158-.273a.47.47,0,0,0,.294-.71.28.28,0,0,1,.386-.386.47.47,0,0,0,.71-.294.28.28,0,0,1,.546,0,.47.47,0,0,0,.71.294.28.28,0,0,1,.386.386.47.47,0,0,0,.294.71.28.28,0,0,1,0,.546.47.47,0,0,0-.294.71.28.28,0,0,1-.386.386.47.47,0,0,0-.71.294.28.28,0,0,1-.546,0,.47.47,0,0,0-.71-.294.28.28,0,0,1-.386-.386.47.47,0,0,0-.294-.71.28.28,0,0,1,0-.546Z" transform="translate(-174.611 -53.649)"/><path class="a" d="M216,168h4.7v.94H216Z" transform="translate(-204.798 -159.421)"/><path class="a" d="M168,168h1.881v.94H168Z" transform="translate(-159.436 -159.421)"/><path class="a" d="M152,240h11.284v.94H152Z" transform="translate(-144.558 -227.357)"/><path class="a" d="M120,240h.94v.94H120Z" transform="translate(-114.131 -227.357)"/><path class="a" d="M152,304h11.284v.94H152Z" transform="translate(-144.558 -287.744)"/><path class="a" d="M120,304h.94v.94H120Z" transform="translate(-114.131 -287.744)"/><path class="a" d="M152,368h7.522v.94H152Z" transform="translate(-144.442 -348.132)"/><path class="a" d="M120,368h.94v.94H120Z" transform="translate(-114.131 -348.132)"/><path class="a" d="M296,368h2.821v.94H296Z" transform="translate(-280.253 -348.132)"/></g></svg>