<svg xmlns="http://www.w3.org/2000/svg" width="30.427" height="30.427" viewBox="0 0 30.427 30.427"><g transform="translate(0)"><path d="M39.319,15.606a.859.859,0,0,1,0-.788L40.5,12.5a2.591,2.591,0,0,0-1.188-3.508L36.935,7.777a.9.9,0,0,1-.483-.638l-.465-2.545a2.741,2.741,0,0,0-3.11-2.168l-2.666.362a.954.954,0,0,1-.781-.244L27.494.748a2.836,2.836,0,0,0-3.844,0l-1.936,1.8a.955.955,0,0,1-.781.244l-2.666-.362a2.741,2.741,0,0,0-3.11,2.168L14.693,7.14a.9.9,0,0,1-.483.638L11.831,8.989A2.591,2.591,0,0,0,10.643,12.5l1.183,2.321a.859.859,0,0,1,0,.788l-1.183,2.321a2.591,2.591,0,0,0,1.188,3.508l2.379,1.211a.9.9,0,0,1,.483.638l.465,2.545a2.722,2.722,0,0,0,2.714,2.195,2.945,2.945,0,0,0,.4-.027l2.666-.362a.954.954,0,0,1,.781.244l1.935,1.8a2.836,2.836,0,0,0,3.844,0l1.936-1.8a.955.955,0,0,1,.781-.244L32.877,28a2.741,2.741,0,0,0,3.11-2.168l.465-2.545a.9.9,0,0,1,.483-.638l2.379-1.211A2.591,2.591,0,0,0,40.5,17.927Zm-.862,4.279L36.078,21.1a2.646,2.646,0,0,0-1.427,1.885l-.465,2.545a.927.927,0,0,1-1.052.733L30.467,25.9a2.82,2.82,0,0,0-2.309.72l-1.936,1.8a.96.96,0,0,1-1.3,0l-1.935-1.8a2.805,2.805,0,0,0-1.915-.747,2.924,2.924,0,0,0-.394.027l-2.666.362a.928.928,0,0,1-1.052-.733l-.465-2.545A2.645,2.645,0,0,0,15.067,21.1l-2.379-1.211a.876.876,0,0,1-.4-1.187l1.183-2.322a2.54,2.54,0,0,0,0-2.329l-1.183-2.322a.876.876,0,0,1,.4-1.187l2.379-1.211a2.646,2.646,0,0,0,1.427-1.885L16.959,4.9a.927.927,0,0,1,1.052-.733l2.666.362a2.82,2.82,0,0,0,2.309-.72l1.936-1.8a.96.96,0,0,1,1.3,0l1.935,1.8a2.82,2.82,0,0,0,2.309.72l2.666-.362a.927.927,0,0,1,1.052.733l.465,2.545a2.645,2.645,0,0,0,1.427,1.885l2.379,1.211a.876.876,0,0,1,.4,1.187l-1.183,2.321a2.54,2.54,0,0,0,0,2.329L38.858,18.7A.877.877,0,0,1,38.457,19.885Z" transform="translate(-10.359 0.002)"/></g><g transform="translate(9.902 9.902)"><path d="M154.21,144a.7.7,0,0,0-.988,0L144,153.221a.7.7,0,1,0,.988.988l9.225-9.225A.7.7,0,0,0,154.21,144Z" transform="translate(-143.791 -143.791)"/></g><g transform="translate(8.749 7.716)"><path d="M145.365,123.116a2.563,2.563,0,1,0,2.563,2.563A2.566,2.566,0,0,0,145.365,123.116Zm0,3.728a1.165,1.165,0,1,1,1.165-1.165A1.166,1.166,0,0,1,145.365,126.844Z" transform="translate(-142.802 -123.116)"/></g><g transform="translate(16.552 17.586)"><path d="M263.485,280.61a2.563,2.563,0,1,0,2.563,2.563A2.566,2.566,0,0,0,263.485,280.61Zm0,3.728a1.165,1.165,0,1,1,1.165-1.165A1.166,1.166,0,0,1,263.485,284.338Z" transform="translate(-260.922 -280.61)"/></g></svg>