<svg xmlns="http://www.w3.org/2000/svg" width="70.526" height="54.24" viewBox="0 0 70.526 54.24"><defs><style>.a{fill:#ffc600;}</style></defs><path class="a" d="M53.932,54.24a1.289,1.289,0,0,1-1.287-1.292V46.491H17.881v6.456a1.29,1.29,0,0,1-1.288,1.292H8.868A1.289,1.289,0,0,1,7.58,52.948V46.491H6.125A6.068,6.068,0,0,1,.013,39.971L.756,28.31v0a6.9,6.9,0,0,1,5.379-6.193l-2.52-2.553a1.29,1.29,0,1,1,1.83-1.819l3.193,3.233,1.929-8.484a8.015,8.015,0,0,1,7.558-6.036H52.4a8.012,8.012,0,0,1,7.558,6.036l1.975,8.686,3.39-3.434a1.289,1.289,0,1,1,1.831,1.816l-2.576,2.611a6.891,6.891,0,0,1,5.191,6.138l.745,11.66A6.062,6.062,0,0,1,64.4,46.491H62.945v6.456a1.289,1.289,0,0,1-1.288,1.292Zm1.288-2.582h5.15V46.491H55.22Zm-45.065,0h5.151V46.491H10.154ZM3.326,28.473,2.583,40.135a3.487,3.487,0,0,0,3.542,3.774H64.4a3.481,3.481,0,0,0,3.541-3.774L67.2,28.473a4.267,4.267,0,0,0-4.2-3.936H7.532A4.272,4.272,0,0,0,3.326,28.473Zm9.75-15.406-2.019,8.887H59.468l-2.021-8.887A5.5,5.5,0,0,0,52.4,9.039H18.124A5.5,5.5,0,0,0,13.076,13.067ZM52.644,34.223a5.794,5.794,0,1,1,5.794,5.811A5.809,5.809,0,0,1,52.644,34.223Zm2.576,0a3.219,3.219,0,1,0,3.219-3.229A3.226,3.226,0,0,0,55.22,34.223Zm-48.928,0a5.794,5.794,0,1,1,5.794,5.811A5.809,5.809,0,0,1,6.292,34.223Zm2.575,0a3.219,3.219,0,1,0,3.219-3.229A3.226,3.226,0,0,0,8.868,34.223Zm18.02,5.806V37.447H43.627v2.582Zm0-3.873V33.575H43.627v2.581ZM14.394,16.41a1.3,1.3,0,0,1,0-1.827l3.864-3.874a1.289,1.289,0,0,1,1.82,1.826L16.215,16.41a1.286,1.286,0,0,1-1.821,0ZM41.056,5.166V2.582H38.481V5.166H32.044V2.582H29.468V5.166H21.743V2.582h5.15V0h7.725V2.582h1.288V0h7.726V2.582h5.15V5.166Z"/></svg>