<svg xmlns="http://www.w3.org/2000/svg" width="57" height="59" viewBox="0 0 57 59"><defs><style>.a{fill:#ffc600;}</style></defs><path class="a" d="M6.285,59A6.348,6.348,0,0,1,0,52.6V40.666a6.348,6.348,0,0,1,6.285-6.4H27.041V17.507a5.718,5.718,0,1,1,2.906,0V34.254H50.716A6.347,6.347,0,0,1,57,40.654V52.6A6.337,6.337,0,0,1,50.728,59ZM2.894,40.654V52.6a3.43,3.43,0,0,0,3.391,3.452H50.716a3.43,3.43,0,0,0,3.39-3.452h.013V40.654A3.431,3.431,0,0,0,50.728,37.2H6.285A3.43,3.43,0,0,0,2.894,40.654ZM25.682,11.877A2.824,2.824,0,1,0,28.506,9,2.85,2.85,0,0,0,25.682,11.877ZM12.937,46.633a1.851,1.851,0,1,1,1.851,1.89A1.871,1.871,0,0,1,12.937,46.633ZM28.1,48.113a1.48,1.48,0,0,1,0-2.959H44.419a1.48,1.48,0,0,1,0,2.959ZM7.064,23.149a19.605,19.605,0,0,1-3.509-11.26A19.607,19.607,0,0,1,7.064.628,1.415,1.415,0,0,1,9.084.279a1.483,1.483,0,0,1,.343,2.045A16.608,16.608,0,0,0,6.45,11.889a16.569,16.569,0,0,0,2.977,9.552A1.5,1.5,0,0,1,9.084,23.5a1.379,1.379,0,0,1-.838.276A1.44,1.44,0,0,1,7.064,23.149Zm40.863.337a1.485,1.485,0,0,1-.343-2.045,16.57,16.57,0,0,0,2.977-9.552,16.572,16.572,0,0,0-2.977-9.552A1.5,1.5,0,0,1,47.928.279a1.437,1.437,0,0,1,2.02.349,19.543,19.543,0,0,1,3.509,11.248,19.6,19.6,0,0,1-3.509,11.26,1.437,1.437,0,0,1-1.181.626A1.465,1.465,0,0,1,47.928,23.486Zm-8.175-6.328A1.477,1.477,0,0,1,39.41,15.1a5.676,5.676,0,0,0,0-6.449A1.5,1.5,0,0,1,39.752,6.6a1.437,1.437,0,0,1,2.02.349,8.687,8.687,0,0,1,0,9.865,1.436,1.436,0,0,1-1.181.625A1.466,1.466,0,0,1,39.752,17.158Zm-24.513-.349a8.688,8.688,0,0,1,0-9.865,1.437,1.437,0,0,1,2.02-.349A1.475,1.475,0,0,1,17.6,8.652a5.681,5.681,0,0,0,0,6.449,1.5,1.5,0,0,1-.343,2.057,1.372,1.372,0,0,1-.838.276A1.439,1.439,0,0,1,15.239,16.809Z"/></svg>