<svg xmlns="http://www.w3.org/2000/svg" width="58.441" height="55.322" viewBox="0 0 58.441 55.322"><defs><style>.a{fill:#ffc600;}</style></defs><path class="a" d="M22.6,53.832a13.184,13.184,0,0,1-6.55,1.49c-.659,0-1.132-.032-1.293-.045-.015,0-.028-.007-.042-.008a11.791,11.791,0,0,1-5.364-1.45A13.192,13.192,0,0,1,2.8,55.308c-.658,0-1.131-.031-1.292-.045a1.63,1.63,0,1,1,.257-3.249c2.026.16,5.34-.152,6.337-1.33.032-.038.07-.068.106-.1s.055-.061.086-.088l.02-.014a1.279,1.279,0,0,1,.17-.115c.034-.023.065-.047.1-.065a1.6,1.6,0,0,1,.181-.075c.038-.014.075-.034.114-.045a1.72,1.72,0,0,1,.185-.038c.042-.007.082-.017.124-.023a1.723,1.723,0,0,1,.191,0c.04,0,.081,0,.121,0,.063.007.124.022.186.034a.843.843,0,0,1,.122.025,1.44,1.44,0,0,1,.16.062,1.483,1.483,0,0,1,.138.058,1.425,1.425,0,0,1,.125.079,1.665,1.665,0,0,1,.149.1l.023.015a1,1,0,0,1,.09.094,1.09,1.09,0,0,1,.1.1c.731.863,2.714,1.26,4.517,1.347.071,0,.141.007.212.01a14.362,14.362,0,0,0,1.608-.025,1.688,1.688,0,0,1,.2.006c1.719-.114,3.523-.507,4.215-1.323.03-.036.066-.063.1-.1s.059-.067.093-.1c.007-.006.016-.009.021-.015a1.758,1.758,0,0,1,.166-.112c.035-.022.068-.047.1-.066a1.424,1.424,0,0,1,.18-.076c.039-.015.076-.033.115-.045a1.575,1.575,0,0,1,.191-.039c.038-.007.076-.016.115-.02a1.408,1.408,0,0,1,.2,0h.042a.515.515,0,0,1,.065,0,1.979,1.979,0,0,1,.2.036c.037.008.075.013.11.023a1.226,1.226,0,0,1,.168.065c.043.018.089.033.131.055s.084.052.125.079.1.065.15.1a.1.1,0,0,0,.021.015c.032.029.058.063.088.092a1.137,1.137,0,0,1,.1.1c.677.8,2.427,1.192,4.115,1.317a1.515,1.515,0,0,1,.3-.006c2.029.158,5.34-.152,6.337-1.33a1.3,1.3,0,0,1,.1-.1c.029-.028.056-.062.087-.091a.225.225,0,0,0,.023-.015,1.726,1.726,0,0,1,.161-.109c.036-.023.072-.05.11-.07a1.664,1.664,0,0,1,.166-.071c.044-.016.085-.038.13-.051a1.444,1.444,0,0,1,.166-.034,1.368,1.368,0,0,1,.142-.026c.055,0,.111,0,.167,0H35.9a.746.746,0,0,1,.095,0,1.527,1.527,0,0,1,.155.028,1.468,1.468,0,0,1,.155.031c.044.014.086.033.13.052a1.638,1.638,0,0,1,.167.071c.035.018.069.044.1.065.056.036.113.071.167.114.006.006.014.009.019.015.034.029.061.063.091.093a1.228,1.228,0,0,1,.1.1c.812.958,3,1.292,4.741,1.352l.156.006a13.972,13.972,0,0,0,1.44-.028,1.6,1.6,0,0,1,.254,0c1.7-.12,3.479-.514,4.163-1.322a1.216,1.216,0,0,1,.1-.1c.031-.03.056-.065.09-.093.006-.007.015-.01.021-.016a1.584,1.584,0,0,1,.163-.11c.036-.023.072-.051.109-.069.055-.028.109-.048.165-.07s.086-.037.132-.051a1.538,1.538,0,0,1,.164-.034c.047-.009.1-.021.143-.025a1.47,1.47,0,0,1,.177,0,1.219,1.219,0,0,1,.136,0,1.542,1.542,0,0,1,.177.031c.042.009.087.015.131.027s.1.04.154.06a1.36,1.36,0,0,1,.144.059c.041.022.079.052.12.078a1.544,1.544,0,0,1,.154.1.153.153,0,0,0,.022.016c.031.028.057.062.088.093s.071.062.1.1c1.1,1.3,4.746,1.457,6.334,1.331a1.629,1.629,0,1,1,.262,3.248c-.163.013-.637.045-1.295.045a13.175,13.175,0,0,1-6.548-1.489,13.183,13.183,0,0,1-6.548,1.489c-.658,0-1.132-.032-1.295-.045-.013,0-.024-.006-.037-.008a11.742,11.742,0,0,1-5.368-1.449,11.706,11.706,0,0,1-5.312,1.447c-.033,0-.063.016-.095.017-.163.014-.635.045-1.292.045A13.183,13.183,0,0,1,22.6,53.832Zm0-7.6a13.179,13.179,0,0,1-6.55,1.49c-.658,0-1.131-.033-1.293-.046-.015,0-.027-.006-.042-.007a11.791,11.791,0,0,1-5.364-1.45A13.205,13.205,0,0,1,2.8,47.7c-.658,0-1.13-.032-1.292-.045a1.63,1.63,0,1,1,.257-3.25c2.026.161,5.34-.152,6.337-1.329a1.286,1.286,0,0,1,.106-.1,1.051,1.051,0,0,1,.086-.089c.007-.006.015-.01.021-.014a1.407,1.407,0,0,1,.168-.114c.034-.022.066-.047.1-.066a1.575,1.575,0,0,1,.179-.076,1.1,1.1,0,0,1,.116-.045,1.562,1.562,0,0,1,.188-.04c.039-.007.078-.018.119-.022a1.736,1.736,0,0,1,.2,0H9.43a.405.405,0,0,1,.065,0,1.281,1.281,0,0,1,.2.036c.035.008.072.012.106.022a1.511,1.511,0,0,1,.174.068,1.2,1.2,0,0,1,.126.053c.046.025.088.055.132.084a1.335,1.335,0,0,1,.143.1c.008.007.016.01.023.017.033.029.06.063.09.093s.071.064.1.1c.731.863,2.715,1.257,4.52,1.345.068,0,.135.006.2.008a14.2,14.2,0,0,0,1.615-.024,1.379,1.379,0,0,1,.22,0c1.713-.118,3.507-.511,4.2-1.324.031-.036.067-.063.1-.1s.057-.065.09-.093c.007-.007.015-.009.02-.015a1.469,1.469,0,0,1,.173-.117.98.98,0,0,1,.1-.061,1.159,1.159,0,0,1,.189-.08c.036-.016.069-.031.105-.043a1.725,1.725,0,0,1,.2-.04.761.761,0,0,1,.106-.02,1.53,1.53,0,0,1,.21,0h.039a.434.434,0,0,1,.062,0,1.6,1.6,0,0,1,.2.036.981.981,0,0,1,.108.024,1.3,1.3,0,0,1,.166.063c.044.02.089.034.133.057s.083.052.124.079a1.377,1.377,0,0,1,.15.1.11.11,0,0,1,.021.016c.033.027.059.062.089.091a1.316,1.316,0,0,1,.1.1c.679.8,2.439,1.2,4.132,1.319a1.5,1.5,0,0,1,.283-.007c2.029.159,5.34-.153,6.337-1.329.032-.038.07-.067.105-.1a1.179,1.179,0,0,1,.086-.091.265.265,0,0,0,.022-.015,1.616,1.616,0,0,1,.161-.109c.038-.024.072-.051.111-.072a1.662,1.662,0,0,1,.166-.069c.042-.017.084-.036.128-.051s.113-.023.171-.034.092-.02.138-.025.117,0,.175,0h.059a.689.689,0,0,1,.079,0c.058.006.112.021.169.031s.095.015.142.028.1.037.142.057.1.041.155.066.074.047.111.07a1.328,1.328,0,0,1,.162.112c.007.006.015.009.02.014.035.028.061.064.093.093s.069.061.1.1c.807.953,2.988,1.29,4.722,1.351l.188.007c.551.013,1.049,0,1.427-.028a1.67,1.67,0,0,1,.262,0c1.7-.121,3.471-.514,4.153-1.322.033-.036.07-.065.105-.1s.056-.063.089-.092a.1.1,0,0,0,.02-.014,1.746,1.746,0,0,1,.168-.113c.034-.023.068-.047.1-.067a1.708,1.708,0,0,1,.177-.076c.04-.015.078-.034.12-.047a1.63,1.63,0,0,1,.177-.035,1.271,1.271,0,0,1,.132-.024,1.825,1.825,0,0,1,.183,0c.043,0,.085,0,.128,0a1.824,1.824,0,0,1,.181.033c.043.01.087.015.129.026s.1.041.154.061a1.553,1.553,0,0,1,.144.06c.041.022.079.051.12.077a1.775,1.775,0,0,1,.153.1c.006.006.015.01.02.016.034.028.06.063.091.094s.071.062.1.1c1.1,1.3,4.746,1.454,6.334,1.331a1.63,1.63,0,1,1,.264,3.25c-.163.014-.636.045-1.294.045a13.18,13.18,0,0,1-6.549-1.489,13.186,13.186,0,0,1-6.548,1.489c-.658,0-1.132-.032-1.294-.045l-.037-.008a11.755,11.755,0,0,1-5.369-1.449,11.716,11.716,0,0,1-5.312,1.447c-.032,0-.061.014-.095.017-.163.015-.634.046-1.292.046A13.182,13.182,0,0,1,22.6,46.228Zm0-7.607a13.192,13.192,0,0,1-6.55,1.49c-.659,0-1.132-.033-1.293-.046-.015,0-.028-.007-.042-.007a11.791,11.791,0,0,1-5.364-1.45A13.2,13.2,0,0,1,2.8,40.1c-.658,0-1.131-.033-1.292-.047A1.631,1.631,0,1,1,1.761,36.8c2.026.159,5.339-.153,6.337-1.329.034-.038.071-.068.107-.1a1.175,1.175,0,0,1,.085-.087c.007-.007.015-.01.021-.016a1.615,1.615,0,0,1,.169-.116c.035-.022.066-.047.1-.064a1.55,1.55,0,0,1,.177-.076c.04-.014.079-.033.12-.047a1.644,1.644,0,0,1,.178-.035c.043-.009.085-.019.129-.024.063,0,.123,0,.185,0,.043,0,.086,0,.128,0a1.389,1.389,0,0,1,.181.032c.044.009.087.015.128.026a1.628,1.628,0,0,1,.155.059c.048.021.1.038.142.062a1.26,1.26,0,0,1,.121.076c.052.034.1.066.154.106a.187.187,0,0,0,.021.014c.032.029.058.064.088.092s.073.063.1.1c.731.864,2.714,1.26,4.517,1.346.071.006.14.008.209.01a14.231,14.231,0,0,0,1.611-.025,1.4,1.4,0,0,1,.2.007c1.718-.117,3.522-.508,4.214-1.325.03-.036.067-.064.1-.1s.058-.064.092-.093a.177.177,0,0,1,.022-.016,1.624,1.624,0,0,1,.166-.113c.035-.022.068-.047.1-.067a1.51,1.51,0,0,1,.182-.076c.038-.015.076-.031.113-.044a1.628,1.628,0,0,1,.194-.041c.038-.006.075-.017.113-.019a1.723,1.723,0,0,1,.211,0h.042a.338.338,0,0,1,.058,0,1.692,1.692,0,0,1,.209.037.834.834,0,0,1,.1.022,1.589,1.589,0,0,1,.176.068c.042.016.084.032.125.052s.086.055.13.083.1.062.145.1c.007.006.015.01.022.016.033.027.059.061.09.091s.071.064.1.1c.679.8,2.432,1.193,4.122,1.317a1.387,1.387,0,0,1,.294-.005c2.029.157,5.34-.152,6.338-1.331.031-.037.07-.066.1-.1s.054-.061.087-.089c.006-.005.014-.009.021-.014a1.41,1.41,0,0,1,.164-.111c.036-.023.07-.049.108-.069a1.81,1.81,0,0,1,.173-.073c.04-.015.079-.033.121-.047a1.672,1.672,0,0,1,.182-.038c.042-.007.084-.017.127-.023a1.477,1.477,0,0,1,.189,0c.04,0,.08,0,.121,0,.063.006.122.022.183.032.043.011.085.016.128.027s.1.04.15.06.1.038.148.063.075.049.116.073a1.449,1.449,0,0,1,.156.108l.022.014c.032.029.06.065.091.1s.068.059.1.1c.814.959,3.019,1.293,4.758,1.354l.132,0c.557.015,1.065,0,1.449-.028a1.6,1.6,0,0,1,.225,0c1.711-.117,3.5-.509,4.19-1.322a1.168,1.168,0,0,1,.1-.1,1.113,1.113,0,0,1,.089-.092c.007-.006.015-.008.021-.014.055-.042.109-.076.166-.112.035-.023.069-.049.106-.068a1.466,1.466,0,0,1,.172-.071.965.965,0,0,1,.124-.049,1.335,1.335,0,0,1,.174-.037c.044-.008.089-.019.134-.025.062,0,.121,0,.183,0,.043,0,.087,0,.13,0a1.489,1.489,0,0,1,.183.033,1.193,1.193,0,0,1,.126.026,1.494,1.494,0,0,1,.159.061,1.41,1.41,0,0,1,.14.059c.044.023.082.054.124.08a1.283,1.283,0,0,1,.149.1l.023.015c.032.028.058.063.089.094s.07.061.1.1c1.1,1.3,4.746,1.455,6.334,1.33a1.63,1.63,0,1,1,.26,3.25c-.163.014-.637.045-1.295.045a13.165,13.165,0,0,1-6.548-1.49,13.173,13.173,0,0,1-6.548,1.49c-.658,0-1.132-.033-1.295-.045a.272.272,0,0,0-.037-.007,11.775,11.775,0,0,1-5.368-1.45,11.7,11.7,0,0,1-5.312,1.446c-.033,0-.063.015-.095.017-.163.014-.635.046-1.292.046A13.191,13.191,0,0,1,22.6,38.621ZM43.239,25.263V22.916a9.569,9.569,0,0,1-3.922-1.623l-1.663,1.659a1.632,1.632,0,0,1-2.311-2.3l1.662-1.659a9.539,9.539,0,0,1-1.626-3.913H33.029a1.63,1.63,0,1,1,0-3.26h2.35A9.557,9.557,0,0,1,37.006,7.9L35.343,6.244a1.632,1.632,0,0,1,2.31-2.305L39.316,5.6a9.573,9.573,0,0,1,3.922-1.623V1.63a1.633,1.633,0,0,1,3.267,0V3.976A9.568,9.568,0,0,1,50.426,5.6l1.663-1.66A1.632,1.632,0,0,1,54.4,6.244L52.736,7.9a9.536,9.536,0,0,1,1.626,3.914h2.351a1.63,1.63,0,1,1,0,3.26H54.368A9.588,9.588,0,0,1,52.74,18.99L54.4,20.648a1.632,1.632,0,0,1-2.31,2.3l-1.664-1.659a9.563,9.563,0,0,1-3.922,1.623v2.346a1.633,1.633,0,0,1-3.267,0ZM38.5,13.446a6.374,6.374,0,1,0,6.374-6.361A6.373,6.373,0,0,0,38.5,13.446ZM13.882,23.807h0a1.653,1.653,0,0,1-.488-.085c-.032-.01-.066-.019-.1-.032a1.56,1.56,0,0,1-.436-.252c-.01-.007-.02-.009-.028-.016a1.672,1.672,0,0,1-.117-.121c-.023-.025-.052-.044-.075-.07-1.228-1.447-4.907-2.956-6.94-3.567a1.63,1.63,0,1,1,.944-3.12,26.328,26.328,0,0,1,7.241,3.432,26.356,26.356,0,0,1,7.241-3.432,1.629,1.629,0,1,1,.946,3.117c-2.033.615-5.715,2.125-6.937,3.567-.025.029-.055.051-.081.076a1.576,1.576,0,0,1-.112.117c-.009.007-.02.01-.028.016a1.6,1.6,0,0,1-.436.252c-.032.014-.065.022-.1.033a1.653,1.653,0,0,1-.488.085h0ZM9.527,14.028h0a1.648,1.648,0,0,1-.488-.085c-.032-.011-.066-.02-.1-.032a1.6,1.6,0,0,1-.436-.252c-.009-.008-.019-.009-.027-.016a1.672,1.672,0,0,1-.117-.121c-.024-.025-.053-.044-.075-.07C7.052,12,3.372,10.494,1.341,9.884a1.631,1.631,0,1,1,.946-3.122,26.288,26.288,0,0,1,7.241,3.432,26.312,26.312,0,0,1,7.241-3.432,1.629,1.629,0,1,1,.944,3.119c-2.033.615-5.715,2.125-6.938,3.568-.024.028-.054.049-.08.075a1.567,1.567,0,0,1-.112.117c-.009.007-.02.009-.028.016a1.644,1.644,0,0,1-.436.252c-.033.013-.065.022-.1.033a1.648,1.648,0,0,1-.488.085h0Z"/></svg>