<svg xmlns="http://www.w3.org/2000/svg" width="59.664" height="59.664" viewBox="0 0 59.664 59.664"><defs><style>.a{fill:#ffc600;}</style></defs><path class="a" d="M543.421,3099.748h-3.729v-23.617a13.689,13.689,0,0,0-13.673-13.673h-1.243a4.978,4.978,0,0,0-4.972-4.972h-2.486a2.486,2.486,0,0,0-4.972,0H509.86a4.978,4.978,0,0,0-4.972,4.972h-1.243a13.689,13.689,0,0,0-13.673,13.673v23.617h-3.729a1.243,1.243,0,0,0-1.243,1.243v4.972a1.243,1.243,0,0,0,1.243,1.243h6.907a4.913,4.913,0,0,0-.692,2.486,4.972,4.972,0,1,0,9.944,0,4.912,4.912,0,0,0-.692-2.486h26.243a4.915,4.915,0,0,0-.692,2.486,4.972,4.972,0,1,0,9.944,0,4.914,4.914,0,0,0-.692-2.486h6.907a1.243,1.243,0,0,0,1.243-1.243v-4.972A1.242,1.242,0,0,0,543.421,3099.748Zm-28.589-42.264,1.243,0h-1.243Zm-4.972,2.489H519.8a2.489,2.489,0,0,1,2.486,2.486H507.374A2.489,2.489,0,0,1,509.86,3059.972Zm-17.4,16.159a11.2,11.2,0,0,1,11.187-11.187h22.374a11.2,11.2,0,0,1,11.187,11.187v23.617h-5.664a4.919,4.919,0,0,0,.692-2.486v-14.916a4.978,4.978,0,0,0-4.972-4.972H522.29v-1.243a3.733,3.733,0,0,0-3.729-3.729H511.1a3.733,3.733,0,0,0-3.729,3.729v1.243H502.4a4.977,4.977,0,0,0-4.972,4.972v14.916a4.912,4.912,0,0,0,.692,2.486h-5.664Zm34.8,3.729a2.488,2.488,0,0,1,2.486,2.486v14.916a2.488,2.488,0,0,1-2.486,2.486H502.4a2.489,2.489,0,0,1-2.486-2.486v-14.916a2.488,2.488,0,0,1,2.486-2.486Zm-17.4-2.486v-1.243a1.245,1.245,0,0,1,1.243-1.243h7.458a1.245,1.245,0,0,1,1.243,1.243v1.243Zm-12.43,34.8a2.486,2.486,0,1,1,2.486-2.486A2.488,2.488,0,0,1,497.43,3112.178Zm34.8,0a2.486,2.486,0,1,1,2.486-2.486A2.488,2.488,0,0,1,532.234,3112.178Zm9.944-7.458H487.486v-2.486h54.692v2.486Z" transform="translate(-485 -3055)"/></svg>