<svg xmlns="http://www.w3.org/2000/svg" width="64.003" height="47.761" viewBox="0 0 64.003 47.761"><defs><style>.a{fill:#ffc600;}</style></defs><path class="a" d="M54.263,47.762a1.4,1.4,0,0,1-1.391-1.415V42.1h-29.2a1.416,1.416,0,0,1,0-2.831H61.22V33.6H2.783v5.663H15.328a1.416,1.416,0,0,1,0,2.831h-4.2v4.247a1.4,1.4,0,0,1-1.391,1.415H4.174a1.4,1.4,0,0,1-1.391-1.415V42.1H1.391A1.4,1.4,0,0,1,0,40.683V32.189a1.4,1.4,0,0,1,1.391-1.415H2.783V23.742a7.108,7.108,0,0,1,5.565-6.974V7.923a5.976,5.976,0,0,1,5.166-5.955L26.005.378a47.409,47.409,0,0,1,11.945,0l12.493,1.59a5.975,5.975,0,0,1,5.165,5.955v8.835a7.108,7.108,0,0,1,5.612,6.984v7.032h1.391A1.4,1.4,0,0,1,64,32.189v8.494A1.4,1.4,0,0,1,62.612,42.1H61.22v4.247a1.4,1.4,0,0,1-1.391,1.415Zm1.391-2.831h2.784V42.1H55.654Zm-50.089,0H8.348V42.1H5.565Zm0-21.188v7.032H58.438V23.742a4.263,4.263,0,0,0-4.221-4.294H9.786A4.263,4.263,0,0,0,5.565,23.742ZM48.7,10.954a1.4,1.4,0,0,1,1.391,1.415v4.247h2.737V7.923A3.156,3.156,0,0,0,50.1,4.778L37.605,3.187a44.592,44.592,0,0,0-11.254,0L13.859,4.778a3.156,3.156,0,0,0-2.728,3.145v8.694h2.782V12.37A1.4,1.4,0,0,1,15.3,10.954H26.436a1.4,1.4,0,0,1,1.391,1.415v4.247h8.349V12.37a1.4,1.4,0,0,1,1.391-1.415Zm-9.74,5.662h8.348V13.785H38.958Zm-22.262,0h8.349V13.785H16.7Zm1.823,25.067a1.431,1.431,0,0,1,0-2,1.372,1.372,0,0,1,1.966,0,1.431,1.431,0,0,1,0,2,1.372,1.372,0,0,1-1.966,0Z"/></svg>