<svg xmlns="http://www.w3.org/2000/svg" width="59.664" height="59.664" viewBox="0 0 59.664 59.664"><defs><style>.a{fill:#ffc600;}</style></defs><path class="a" d="M1115.083,2908.143a1.385,1.385,0,0,1,0,2.771h-2.148a1.385,1.385,0,0,1,0-2.771Zm-7.233,2.74a1.38,1.38,0,0,0,1.64-1.062l.419-1.95c.31-1.44,1.647-6.141,5.856-6.141h1.884c4.208,0,5.546,4.7,5.856,6.141l.419,1.951a1.38,1.38,0,1,0,2.7-.585l-.42-1.95c-1.1-5.137-4.382-8.327-8.553-8.327h-1.884c-4.172,0-7.449,3.19-8.553,8.327l-.419,1.95A1.385,1.385,0,0,0,1107.85,2910.883Zm3.758-20.387a6.723,6.723,0,0,1,4.68-6.431,1.371,1.371,0,0,1,.838,0,6.759,6.759,0,0,1,0,12.863,1.377,1.377,0,0,1-.837,0A6.723,6.723,0,0,1,1111.608,2890.5Zm2.759,0a2.569,2.569,0,1,0,2.339-3.631A3.965,3.965,0,0,0,1114.367,2890.5Zm28.327,29.119a1.38,1.38,0,0,1-1.727-.911,3.443,3.443,0,0,0-3.255-2.415H1102.55q.69,1.165,1.3,2.3h31.7a4.591,4.591,0,0,1,0,9.183h-.186v13.122h1.727a1.385,1.385,0,0,1,0,2.77h-3.932a1.386,1.386,0,0,1-.554-2.654v-13.239H1107.49a21.03,21.03,0,0,1,.538,3.513,1.38,1.38,0,1,1-2.754.171c-.184-2.988-1.437-8.155-6.364-15.8a1.385,1.385,0,0,1,1.158-2.137h37.644a6.226,6.226,0,0,1,5.89,4.363A1.387,1.387,0,0,1,1142.694,2919.615Zm-37.471,1.744q.858,1.875,1.462,3.642h28.866a1.821,1.821,0,0,0,0-3.642Zm-3.237,5.027a1.382,1.382,0,0,1-1.379,1.385h-9.09v13.239a1.386,1.386,0,0,1-.554,2.654h-3.932a1.385,1.385,0,0,1,0-2.77h1.727v-13.122h-.186a4.594,4.594,0,0,1-1.761-8.828,6.73,6.73,0,0,1-2.746-3.619,1.39,1.39,0,0,1,0-.841,6.715,6.715,0,0,1,12.81,0,1.39,1.39,0,0,1,0,.841,6.734,6.734,0,0,1-2.252,3.264h3.05a1.385,1.385,0,0,1,0,2.771h-9.1a1.841,1.841,0,0,0-1.813,1.82,1.82,1.82,0,0,0,1.813,1.821h12.035A1.382,1.382,0,0,1,1101.987,2926.386Zm-15.133-11.482a3.959,3.959,0,1,0,3.616-2.349A3.948,3.948,0,0,0,1086.854,2914.9Zm13.559-28.122c1.728.962,1.376,2.429-.563,6.351a17.756,17.756,0,0,0-1.909,5.039,4.569,4.569,0,0,0,2.472,4.938,1.376,1.376,0,0,0,1.875-.54,1.389,1.389,0,0,0-.538-1.883c-1.714-.954-1.36-2.415.572-6.322a17.778,17.778,0,0,0,1.913-5.053,4.588,4.588,0,0,0-2.484-4.953,1.384,1.384,0,0,0-1.338,2.423Zm-6.288,16.328a1.376,1.376,0,0,0,1.875-.54,1.388,1.388,0,0,0-.538-1.883c-1.714-.954-1.36-2.415.572-6.323a17.781,17.781,0,0,0,1.912-5.053,4.588,4.588,0,0,0-2.484-4.953,1.384,1.384,0,0,0-1.338,2.423c1.729.962,1.376,2.429-.562,6.351a17.747,17.747,0,0,0-1.909,5.039A4.569,4.569,0,0,0,1094.125,2903.109Z" transform="translate(-1084 -2884)"/></svg>