<svg xmlns="http://www.w3.org/2000/svg" width="60" height="60" viewBox="0 0 60 60"><defs><style>.a{fill:#ffc600;}</style></defs><path class="a" d="M19.788,58.223l-.453.452a3.528,3.528,0,0,1-5.841-3.616,30.33,30.33,0,0,1-7.52-7.087,3.528,3.528,0,0,1-3.407-5.8,30.013,30.013,0,1,1,54.975-24.1A1.176,1.176,0,0,1,58.2,19.73,30.034,30.034,0,0,1,19.788,58.223Zm1.864-1.864a27.65,27.65,0,0,0,34.7-34.705L27.567,50.444A20.469,20.469,0,0,0,30,50.588a20.689,20.689,0,0,0,18.663-11.9,1.176,1.176,0,0,1,2.131,1A22.943,22.943,0,0,1,25.511,52.5ZM52.371,21.665a31.224,31.224,0,0,0-14.117,8.109L33.449,34.58a2.216,2.216,0,0,0-.644,1.73,4.565,4.565,0,0,1-1.325,3.566L16.008,55.347a1.176,1.176,0,1,0,1.664,1.663L53.249,21.433ZM8,46.719a27.892,27.892,0,0,0,6.89,6.42L18.3,49.725a23.116,23.116,0,0,1-6.942-6.369ZM29.363,25.355,13.05,41.668A20.73,20.73,0,0,0,20.027,48l9.789-9.789a2.21,2.21,0,0,0,.643-1.73,4.568,4.568,0,0,1,1.326-3.567l4.806-4.805a33.581,33.581,0,0,1,15.182-8.721l3.366-.885A27.816,27.816,0,0,0,46.719,8L37,17.718a1.176,1.176,0,0,1-1.663-1.663L44.1,7.292l.659-.659Q43.713,5.971,42.61,5.4a1.209,1.209,0,0,1-.176.226l-8.763,8.763a1.176,1.176,0,0,1-1.663-1.664L40.365,4.37Q39.3,3.937,38.2,3.595l-.224-.176a1.262,1.262,0,0,1-.1.109l-8.162,8.162a5.214,5.214,0,0,0-1.516,4l.032.521a7.562,7.562,0,0,1-2.2,5.813L4.362,43.7a1.176,1.176,0,0,0,1.664,1.663L27.7,23.691a7.562,7.562,0,0,1,5.814-2.2l.519.032a5.214,5.214,0,0,0,4-1.516l9.389-9.388a1.176,1.176,0,0,1,1.664,1.663L39.7,21.672a7.562,7.562,0,0,1-5.814,2.2l-.519-.032c-.107-.007-.213-.01-.319-.01A5.216,5.216,0,0,0,29.363,25.355ZM2.353,30A27.493,27.493,0,0,0,4.372,40.364l3.681-3.682A22.945,22.945,0,0,1,30,7.059c.226,0,.653-.052,1.113-.091l4.113-4.114A27.635,27.635,0,0,0,2.353,30Zm7.058,0a20.552,20.552,0,0,0,.559,4.765l14.4-14.4a5.211,5.211,0,0,0,1.515-4l-.031-.521a7.562,7.562,0,0,1,2.2-5.813l.566-.566A20.615,20.615,0,0,0,9.412,30ZM51.65,32.529a1.177,1.177,0,0,1-1.1-1.247c.011-.167.019-.335.026-.5a1.177,1.177,0,1,1,2.351.088c-.008.186-.017.373-.029.56a1.177,1.177,0,0,1-1.173,1.1C51.7,32.531,51.675,32.531,51.65,32.529Z"/></svg>