<svg xmlns="http://www.w3.org/2000/svg" width="59" height="59" viewBox="0 0 59 59"><defs><style>.a{fill:#ffc600;}</style></defs><path class="a" d="M57.033,59H38.35a.983.983,0,1,1,0-1.966h.983v-2.95h3.933V50.151h1.967v-18.1L35.4,41.879V59H29.5V57.034H9.833V59h-5.9V44.227A9.783,9.783,0,0,1,4.97,27.869a15.8,15.8,0,0,1,8.8-9.005V17.7a5.9,5.9,0,0,1,11.8,0v1.159A15.746,15.746,0,0,1,35.4,33.437v.1L45.233,23.7V6.4A6.393,6.393,0,0,1,48.6.77a6.705,6.705,0,0,1,7.022.5,5.386,5.386,0,0,1,2.4,4.536V13.74a13.243,13.243,0,0,1-3.906,9.429l-2.978,2.977v24H53.1v3.933h3.933v2.949h.983a.984.984,0,0,1,0,1.967ZM41.3,57.033H55.067v-.983H41.3Zm-9.833,0h1.967V49.167H31.467Zm-25.567,0H7.867V49.167H5.9ZM19.1,19.7c-.217.009-.436.014-.65.033-.278.025-.555.066-.832.107-.121.018-.242.035-.361.056-.316.055-.63.124-.944.2l-.19.049q-.509.136-1.013.312a13.81,13.81,0,0,0-8.427,8.434c-.115.329-.215.659-.3.99-.021.078-.04.155-.06.233q-.112.437-.193.881c-.03.169-.054.341-.079.511-.032.223-.067.445-.088.669-.038.415-.064.833-.064,1.257V47.2H9.833v7.866H29.5V47.2h3.935V33.436a13.776,13.776,0,0,0-9.213-12.975q-.5-.177-1.013-.312c-.063-.017-.126-.034-.19-.049q-.469-.119-.943-.2c-.119-.021-.241-.038-.361-.056-.277-.043-.555-.083-.832-.107-.214-.019-.433-.024-.65-.033q-.282-.012-.565-.012T19.1,19.7ZM45.233,54.083h5.9V52.117h-5.9ZM47.2,50.15h1.967V35.4H47.2ZM1.967,36.385a7.844,7.844,0,0,0,1.967,5.2V33.436c0-.472.029-.944.072-1.413.019-.213.049-.422.077-.633.02-.141.03-.282.052-.425A7.833,7.833,0,0,0,1.967,36.385Zm33.433-.07V39.1l9.833-9.833v-2.78Zm11.8-2.88h1.967V31.469H47.2ZM49.531,2.5A4.429,4.429,0,0,0,47.2,6.4V29.5h1.967V6.4a2.458,2.458,0,0,1,4.917,0V8.854H56.05V5.8a3.47,3.47,0,0,0-1.51-2.89,5.351,5.351,0,0,0-2.926-.937A4.35,4.35,0,0,0,49.531,2.5Zm4.552,9.613a13.342,13.342,0,0,1-2.95,8.35v2.9l1.587-1.586a11.3,11.3,0,0,0,3.33-8.039V10.821H54.083ZM21.044,17.775q.211.017.419.04c.391.046.781.1,1.169.178.246.046.486.108.728.166.08.02.16.034.24.056V17.7a3.933,3.933,0,1,0-7.867,0v.511c.079-.022.159-.036.238-.056.242-.057.482-.118.728-.166.388-.075.779-.132,1.169-.178q.21-.024.419-.04c.459-.041.918-.071,1.379-.071S20.585,17.734,21.044,17.775ZM51.133,6.4V16.7a11.309,11.309,0,0,0,.983-4.587V6.4a.492.492,0,0,0-.983,0ZM12.783,54.083a.983.983,0,0,1,0-1.967H26.55a.983.983,0,0,1,0,1.967Zm0-3.933a.983.983,0,1,1,0-1.967H26.55a.983.983,0,1,1,0,1.967ZM9.833,33.436c0-5.963,4.411-10.815,9.833-10.815S29.5,27.473,29.5,33.436s-4.411,10.815-9.833,10.815S9.833,39.4,9.833,33.436Zm1.967,0c0,4.88,3.529,8.849,7.867,8.849s7.867-3.969,7.867-8.849S24,24.587,19.667,24.587,11.8,28.556,11.8,33.436Zm3.933-2.951a3.933,3.933,0,1,1,3.933,3.934A3.937,3.937,0,0,1,15.733,30.485Zm1.967,0a1.967,1.967,0,1,0,1.967-1.965A1.97,1.97,0,0,0,17.7,30.485Z"/></svg>